# xmcd
#
# Track frame offsets: 
#        150
#        14725
#        30190
#        41735
#        55519
#        69417
#        80895
#        96260
#        110539
#        125609
#
# Disc length: 1834 seconds
#
# Revision: 0
# Processed by: cddbd v1.5.2PL0 Copyright (c) Steve Scherf et al.
# Submitted via: ExactAudioCopyFreeDBPlugin 1.0
#
DISCID=8207280a
DTITLE=Bill Mock - Past and Present
DYEAR=2013
DGENRE=Country
TTITLE0=Lonely Place
TTITLE1=Another Bridge To Burn
TTITLE2=What A Way To Live
TTITLE3=Past and Present
TTITLE4=When The Thought Of You Catches Up With Me
TTITLE5=I Don't Live Far From The Bar
TTITLE6=A Way To Survive
TTITLE7=Kissed You In MY Dream Last Night
TTITLE8=Thank Goodness
TTITLE9=Highway 105
EXTD=
EXTT0=
EXTT1=
EXTT2=
EXTT3=
EXTT4=
EXTT5=
EXTT6=
EXTT7=
EXTT8=
EXTT9=
PLAYORDER=
